<svg class="wave" id="wave" style=" line-height: 0; transform:rotate(180deg); transition: 0.3s" preserveAspectRatio="none" viewBox="0 0 1440 210" version="1.1" xmlns="http://www.w3.org/2000/svg"><defs><linearGradient id="sw-gradient-0" x1="0" x2="0" y1="1" y2="0"><stop stop-color="rgba(14, 41, 60, 1)" offset="0%"></stop><stop stop-color="rgba(33.201, 84.792, 121.097, 1)" offset="100%"></stop></linearGradient></defs><path style="transform:translate(0, 0px); opacity:1" fill="url(#sw-gradient-0)" d="M0,147L48,136.5C96,126,192,105,288,98C384,91,480,98,576,105C672,112,768,119,864,112C960,105,1056,84,1152,66.5C1248,49,1344,35,1440,52.5C1536,70,1632,119,1728,140C1824,161,1920,154,2016,140C2112,126,2208,105,2304,84C2400,63,2496,42,2592,49C2688,56,2784,91,2880,87.5C2976,84,3072,42,3168,45.5C3264,49,3360,98,3456,98C3552,98,3648,49,3744,38.5C3840,28,3936,56,4032,84C4128,112,4224,140,4320,150.5C4416,161,4512,154,4608,154C4704,154,4800,161,4896,154C4992,147,5088,126,5184,122.5C5280,119,5376,133,5472,147C5568,161,5664,175,5760,175C5856,175,5952,161,6048,133C6144,105,6240,63,6336,38.5C6432,14,6528,7,6624,35C6720,63,6816,126,6864,157.5L6912,189L6912,210L6864,210C6816,210,6720,210,6624,210C6528,210,6432,210,6336,210C6240,210,6144,210,6048,210C5952,210,5856,210,5760,210C5664,210,5568,210,5472,210C5376,210,5280,210,5184,210C5088,210,4992,210,4896,210C4800,210,4704,210,4608,210C4512,210,4416,210,4320,210C4224,210,4128,210,4032,210C3936,210,3840,210,3744,210C3648,210,3552,210,3456,210C3360,210,3264,210,3168,210C3072,210,2976,210,2880,210C2784,210,2688,210,2592,210C2496,210,2400,210,2304,210C2208,210,2112,210,2016,210C1920,210,1824,210,1728,210C1632,210,1536,210,1440,210C1344,210,1248,210,1152,210C1056,210,960,210,864,210C768,210,672,210,576,210C480,210,384,210,288,210C192,210,96,210,48,210L0,210Z"></path></svg>